<svg width="82" height="8" viewBox="0 0 82 8" fill="none" xmlns="http://www.w3.org/2000/svg">
<path fill-rule="evenodd" clip-rule="evenodd" d="M71.584 5.00024C72.2374 5.00024 72.7129 5.62806 72.357 6.17606C71.6439 7.27404 70.4068 8.00024 69 8.00024C66.7909 8.00024 65 6.20938 65 4.00024C65 1.79111 66.7909 0.000244141 69 0.000244141C70.4068 0.000244141 71.6439 0.72645 72.357 1.82443C72.7129 2.37243 72.2374 3.00024 71.584 3.00024H71.3092C70.9523 3.00024 70.6352 2.79474 70.3763 2.54906C70.0177 2.20892 69.5332 2.00024 69 2.00024C67.8954 2.00024 67 2.89567 67 4.00024C67 5.10481 67.8954 6.00024 69 6.00024C69.5332 6.00024 70.0177 5.79157 70.3763 5.45143C70.6352 5.20575 70.9523 5.00024 71.3092 5.00024H71.584Z" fill="white"/>
<path d="M41.5 7.00024V1.00024C41.5 0.447959 41.0523 0.000244141 40.5 0.000244141C39.9477 0.000244141 39.5 0.447959 39.5 1.00024V5.50024C39.5 5.77639 39.2761 6.00024 39 6.00024C38.7239 6.00024 38.5 5.77639 38.5 5.50024V1.00024C38.5 0.447959 38.0523 0.000244141 37.5 0.000244141C36.9477 0.000244141 36.5 0.447959 36.5 1.00024V5.50024C36.5 5.77639 36.2761 6.00024 36 6.00024C35.7239 6.00024 35.5 5.77639 35.5 5.50024V1.00024C35.5 0.447959 35.0523 0.000244141 34.5 0.000244141C33.9477 0.000244141 33.5 0.447959 33.5 1.00024V7.00024C33.5 7.55253 33.9477 8.00024 34.5 8.00024H38.5H39.5H40.5C41.0523 8.00024 41.5 7.55253 41.5 7.00024Z" fill="white"/>
<path d="M31.5 0.000244141H30.154C29.7567 0.000244141 29.3971 0.235438 29.2379 0.599426L26.6129 6.59943C26.3238 7.26011 26.8079 8.00024 27.529 8.00024H31.5C32.0523 8.00024 32.5 7.55253 32.5 7.00024V2.00024V1.00024C32.5 0.447959 32.0523 0.000244141 31.5 0.000244141Z" fill="white"/>
<path d="M47 0.000244141H45.654C45.2567 0.000244141 44.8971 0.235438 44.7379 0.599426L42.0811 6.67204C41.807 7.29848 42.266 8.00024 42.9498 8.00024C43.29 8.00024 43.6042 7.81793 43.773 7.5225L45.4089 4.65966C45.4652 4.56108 45.5701 4.50024 45.6836 4.50024C45.8583 4.50024 46 4.6419 46 4.81664V7.00024C46 7.55253 46.4477 8.00024 47 8.00024C47.5523 8.00024 48 7.55253 48 7.00024V2.00024V1.00024C48 0.447959 47.5523 0.000244141 47 0.000244141Z" fill="white"/>
<path d="M55.5 0.000244141H51.5H49.5C48.9477 0.000244141 48.5 0.447959 48.5 1.00024C48.5 1.55253 48.9477 2.00024 49.5 2.00024H51.5H53.5H54.5H55.5C56.0523 2.00024 56.5 1.55253 56.5 1.00024C56.5 0.447959 56.0523 0.000244141 55.5 0.000244141Z" fill="white"/>
<path d="M51.5 3.50024V7.00024C51.5 7.55253 51.9477 8.00024 52.5 8.00024C53.0523 8.00024 53.5 7.55253 53.5 7.00024V3.50024C53.5 2.94796 53.0523 2.50024 52.5 2.50024C51.9477 2.50024 51.5 2.94796 51.5 3.50024Z" fill="white"/>
<path d="M64 0.000244141H60H58C57.4477 0.000244141 57 0.447959 57 1.00024C57 1.55253 57.4477 2.00024 58 2.00024H60H62H63H64C64.5523 2.00024 65 1.55253 65 1.00024C65 0.447959 64.5523 0.000244141 64 0.000244141Z" fill="white"/>
<path d="M60 3.50024V7.00024C60 7.55253 60.4477 8.00024 61 8.00024C61.5523 8.00024 62 7.55253 62 7.00024V3.50024C62 2.94796 61.5523 2.50024 61 2.50024C60.4477 2.50024 60 2.94796 60 3.50024Z" fill="white"/>
<path d="M75.5 7.00013C75.5 7.55241 75.0523 8.00013 74.5 8.00013C73.9477 8.00013 73.5 7.55241 73.5 7.00013V1.00012C73.5 0.44784 73.9477 0.000124946 74.5 0.000124946C75.0523 0.000124946 75.5 0.44784 75.5 1.00012V7.00013Z" fill="white"/>
<path d="M80.5 8C79.9477 8 79.5 7.55228 79.5 7V5.00037V3V1C79.5 0.447715 79.9477 0 80.5 0C81.0523 0 81.5 0.447715 81.5 1V7C81.5 7.55228 81.0523 8 80.5 8Z" fill="white"/>
<path d="M76 4.00014C76 3.44787 76.4477 3.00011 77 3.00009L79.5 3V5.00037L76.9999 5.00019C76.4477 5.00016 76 4.5524 76 4.00014Z" fill="white"/>
<path fill-rule="evenodd" clip-rule="evenodd" d="M15.084 5C15.7374 5 16.2129 5.62781 15.857 6.17582C15.1439 7.27379 13.9068 8 12.5 8C10.2909 8 8.5 6.20914 8.5 4C8.5 1.79086 10.2909 0 12.5 0C13.9068 0 15.1439 0.726206 15.857 1.82418C16.2129 2.37219 15.7374 3 15.084 3H14.8092C14.4523 3 14.1352 2.79449 13.8763 2.54881C13.5177 2.20867 13.0332 2 12.5 2C11.3954 2 10.5 2.89543 10.5 4C10.5 5.10457 11.3954 6 12.5 6C13.0332 6 13.5177 5.79133 13.8763 5.45119C14.1352 5.20551 14.4523 5 14.8092 5H15.084Z" fill="white"/>
<rect x="17.5" y="1" width="8" height="6" rx="3" stroke="white" stroke-width="2"/>
<circle cx="20.5" cy="4" r="1.5" fill="white"/>
<path fill-rule="evenodd" clip-rule="evenodd" d="M0 4C0 1.79086 1.79086 0 4 0C6.20914 0 8 1.79086 8 4C8 4.3453 7.95625 4.68038 7.87398 5H5.73244H2.26756H0.126017C0.043753 4.68038 0 4.3453 0 4ZM5.73244 3C5.38663 2.4022 4.74028 2 4 2C3.25972 2 2.61337 2.4022 2.26756 3H5.73244Z" fill="white"/>
<path d="M5.32291 5.5C4.97035 5.81118 4.50722 6 4 6C3.49278 6 3.02965 5.81118 2.67709 5.5H0.290758C0.884146 6.96592 2.32131 8 4 8C5.67869 8 7.11585 6.96592 7.70924 5.5H5.32291Z" fill="white"/>
<g filter="url(#filter0_d_10_64)">
<path d="M11.5472 4.18841L12.4984 2.64968C12.5249 2.60684 12.5909 2.62561 12.5909 2.67597V3.86176C12.5909 3.88938 12.6133 3.91176 12.6409 3.91176H13.405C13.4452 3.91176 13.469 3.9569 13.4462 3.99007L12.5003 5.3672C12.4725 5.40769 12.4091 5.38801 12.4091 5.33889V4.31471C12.4091 4.28709 12.3867 4.26471 12.3591 4.26471H11.5897C11.5505 4.26471 11.5266 4.22173 11.5472 4.18841Z" fill="#F7FF58"/>
</g>
<defs>
<filter id="filter0_d_10_64" x="11.0396" y="2.62598" width="2.91547" height="3.76294" filterUnits="userSpaceOnUse" color-interpolation-filters="sRGB">
<feFlood flood-opacity="0" result="BackgroundImageFix"/>
<feColorMatrix in="SourceAlpha" type="matrix" values="0 0 0 0 0 0 0 0 0 0 0 0 0 0 0 0 0 0 127 0" result="hardAlpha"/>
<feOffset dy="0.5"/>
<feGaussianBlur stdDeviation="0.25"/>
<feComposite in2="hardAlpha" operator="out"/>
<feColorMatrix type="matrix" values="0 0 0 0 0 0 0 0 0 0 0 0 0 0 0 0 0 0 0.5 0"/>
<feBlend mode="normal" in2="BackgroundImageFix" result="effect1_dropShadow_10_64"/>
<feBlend mode="normal" in="SourceGraphic" in2="effect1_dropShadow_10_64" result="shape"/>
</filter>
</defs>
</svg>
