<?xml version="1.0" standalone="no"?>
<!DOCTYPE svg PUBLIC "-//W3C//DTD SVG 20010904//EN"
 "http://www.w3.org/TR/2001/REC-SVG-20010904/DTD/svg10.dtd">
<svg version="1.0" xmlns="http://www.w3.org/2000/svg"
 width="4075.000000pt" height="401.000000pt" viewBox="0 0 4075.000000 401.000000"
 preserveAspectRatio="xMidYMid meet">

<g transform="translate(0.000000,401.000000) scale(0.100000,-0.100000)"
fill="#000000" stroke="none">
<path d="M1841 3998 c-468 -35 -928 -250 -1263 -591 -108 -109 -160 -179 -67
-90 97 94 192 169 316 249 337 219 704 335 1110 350 113 4 298 -6 370 -20 11
-3 43 -8 70 -11 135 -19 375 -96 536 -173 214 -102 402 -231 572 -392 79 -75
84 -79 45 -30 -271 332 -698 587 -1133 675 -106 21 -360 48 -422 44 -11 -1
-71 -6 -134 -11z"/>
<path d="M6091 3998 c-520 -39 -1047 -311 -1371 -708 -39 -48 -33 -44 45 30
50 47 108 99 130 115 22 17 46 36 54 43 42 40 236 160 354 219 293 146 599
216 947 216 172 0 243 -5 380 -28 105 -18 320 -81 425 -126 157 -66 367 -181
460 -253 84 -65 163 -132 234 -200 l75 -71 -45 55 c-266 330 -697 587 -1132
675 -106 21 -360 48 -422 44 -11 -1 -71 -6 -134 -11z"/>
<path d="M10091 3998 c-475 -36 -930 -251 -1273 -602 -105 -106 -136 -157 -41
-66 77 75 75 73 162 139 125 96 228 159 366 227 166 81 364 152 472 169 21 3
54 10 73 15 19 5 58 12 85 15 28 4 66 9 85 12 73 12 1264 15 1397 4 329 -28
642 -127 933 -297 79 -46 268 -181 306 -218 5 -6 46 -45 89 -86 76 -73 77 -73
34 -20 -66 82 -199 211 -291 283 -329 256 -694 397 -1104 427 -166 12 -1131
11 -1293 -2z"/>
<path d="M15010 4000 c-128 -20 -253 -93 -323 -187 -20 -28 -37 -53 -37 -57 0
-3 20 10 45 29 64 48 137 83 225 107 67 19 112 21 419 25 382 5 502 -3 621
-44 72 -24 161 -74 209 -117 47 -41 -33 66 -85 115 -60 55 -121 91 -194 115
-48 15 -104 18 -440 20 -212 1 -410 -1 -440 -6z"/>
<path d="M17179 3999 c-104 -15 -185 -55 -267 -133 -49 -46 -124 -148 -81
-110 49 44 139 94 216 121 69 24 93 27 203 27 106 1 136 -3 195 -23 39 -13 84
-32 100 -41 74 -42 105 -62 105 -69 0 -3 9 -12 21 -19 34 -21 -29 64 -87 119
-112 104 -257 150 -405 128z"/>
<path d="M18679 3999 c-135 -20 -258 -98 -341 -217 l-30 -43 60 45 c137 104
350 150 525 112 76 -17 224 -89 257 -125 3 -4 14 -13 24 -21 36 -28 -39 73
-90 121 -112 104 -257 150 -405 128z"/>
<path d="M20179 3999 c-68 -10 -148 -41 -203 -78 -47 -32 -127 -115 -146 -151
-13 -24 -12 -23 20 3 40 34 156 93 219 113 25 8 91 17 146 21 156 9 300 -34
424 -128 l53 -40 -30 43 c-38 56 -115 127 -172 160 -84 49 -210 72 -311 57z"/>
<path d="M22764 4000 c-130 -20 -246 -85 -320 -179 -24 -30 -42 -57 -40 -59 2
-2 26 12 53 31 63 45 145 82 230 103 56 15 131 18 421 22 382 4 478 -3 598
-43 67 -23 194 -90 194 -104 0 -3 9 -12 21 -19 17 -11 16 -6 -9 30 -38 56
-115 128 -172 160 -102 59 -121 61 -540 64 -212 1 -408 -1 -436 -6z"/>
<path d="M24679 3999 c-136 -20 -260 -99 -341 -219 l-31 -45 29 26 c35 33 120
80 194 109 124 50 132 50 1705 50 1334 0 1554 -3 1654 -24 79 -17 184 -66 255
-121 l48 -36 -30 43 c-64 93 -165 169 -272 205 -52 17 -132 18 -1605 19 -852
1 -1575 -2 -1606 -7z"/>
<path d="M28929 3999 c-135 -20 -258 -98 -341 -217 l-30 -43 48 36 c71 54 169
100 259 121 76 18 152 19 1645 19 l1565 0 80 -23 c96 -28 182 -70 244 -120
l45 -37 -31 45 c-64 94 -165 171 -273 207 -52 17 -132 18 -1605 19 -852 1
-1575 -2 -1606 -7z"/>
<path d="M34360 3999 c-539 -39 -1056 -303 -1390 -710 -37 -45 -28 -38 50 36
411 391 961 604 1525 590 230 -6 392 -33 606 -101 119 -37 129 -41 247 -96 46
-21 85 -38 87 -38 23 0 357 -227 418 -284 7 -6 48 -45 92 -86 76 -72 77 -73
35 -21 -274 335 -698 588 -1135 676 -98 20 -380 49 -420 43 -5 0 -57 -4 -115
-9z"/>
<path d="M37179 3999 c-112 -16 -207 -67 -290 -156 -81 -86 -78 -99 8 -40 104
71 197 100 328 104 161 4 268 -28 398 -120 l69 -48 -30 43 c-38 56 -115 127
-172 160 -84 49 -210 72 -311 57z"/>
<path d="M40179 3999 c-136 -20 -258 -98 -342 -219 l-31 -45 54 43 c225 179
593 171 804 -17 l29 -26 -30 45 c-39 57 -115 129 -173 162 -84 49 -210 72
-311 57z"/>
<path d="M8689 3253 c-13 -16 -12 -17 4 -4 9 7 17 15 17 17 0 8 -8 3 -21 -13z"/>
<path d="M10706 2571 c-8 -13 18 -40 99 -102 l70 -54 -29 40 c-41 57 -108 125
-122 125 -7 0 -15 -4 -18 -9z"/>
<path d="M25835 2528 l-28 -43 36 34 c20 19 34 38 31 43 -8 12 -9 11 -39 -34z"/>
<path d="M26627 2562 c-6 -8 18 -39 47 -62 14 -11 11 -3 -9 28 -29 45 -31 46
-38 34z"/>
<path d="M30085 2528 l-28 -43 28 25 c31 29 50 60 37 60 -5 0 -22 -19 -37 -42z"/>
<path d="M30879 2553 c5 -10 21 -29 36 -43 l28 -25 -28 43 c-27 41 -56 61 -36
25z"/>
<path d="M1592 2491 c-27 -22 -28 -46 -4 -57 27 -14 760 -17 805 -4 43 13 50
40 15 64 -19 14 -75 16 -409 16 -362 0 -387 -1 -407 -19z"/>
<path d="M38429 2499 c-136 -20 -259 -98 -342 -219 l-31 -45 36 30 c43 37 86
62 158 92 134 57 124 56 700 60 294 2 549 5 567 8 32 6 73 45 73 71 0 12 -92
14 -552 13 -304 -1 -578 -5 -609 -10z"/>
<path d="M7331 1499 c-120 -21 -234 -83 -362 -196 -157 -140 -274 -208 -446
-259 -118 -36 -338 -45 -462 -20 -167 34 -359 125 -460 219 -31 29 -30 27 8
-20 154 -189 377 -292 635 -294 149 -1 263 25 386 86 67 34 172 107 225 157
47 45 214 152 280 180 50 21 76 29 135 43 140 32 382 22 491 -21 52 -21 135
-69 168 -98 l24 -21 -17 33 c-42 83 -141 160 -249 194 -72 23 -270 33 -356 17z"/>
<path d="M35590 1499 c-123 -18 -238 -79 -377 -201 -150 -131 -226 -179 -364
-229 -118 -43 -212 -59 -350 -59 -135 0 -231 17 -355 62 -85 30 -234 117 -288
166 l-29 27 20 -30 c59 -85 209 -197 333 -248 208 -86 472 -78 686 22 89 42
103 52 260 177 207 166 338 220 560 229 172 7 337 -32 445 -106 32 -22 59 -35
59 -30 0 19 -67 97 -115 133 -109 83 -292 116 -485 87z"/>
<path d="M11899 1244 c-23 -28 -158 -115 -225 -145 -35 -16 -103 -41 -151 -56
-87 -27 -91 -27 -434 -31 l-347 -3 -22 -24 c-51 -54 8 -66 327 -64 277 2 365
11 490 54 140 48 267 136 355 247 28 36 35 55 7 22z"/>
<path d="M1581 1079 c-11 -5 -21 -11 -21 -14 0 -27 107 -79 228 -111 89 -24
109 -26 237 -21 158 6 225 20 333 73 50 25 72 41 72 53 0 30 -23 31 -92 6
-205 -74 -470 -75 -673 -1 -41 15 -69 20 -84 15z"/>
<path d="M17931 998 c12 -22 49 -48 70 -48 18 0 69 37 69 50 0 5 -33 10 -74
12 -67 3 -73 1 -65 -14z"/>
<path d="M19434 995 c7 -11 25 -27 40 -35 23 -13 29 -13 52 0 15 8 33 24 40
35 13 19 11 20 -66 20 -77 0 -79 -1 -66 -20z"/>
</g>
</svg>
